<svg width="30" height="30" xmlns="http://www.w3.org/2000/svg" version="1.1" fill="none" stroke-linecap="square" stroke-miterlimit="10">
 <clipPath id="p56.0">
  <path d="m0,0l1280,0l0,720l-1280,0l0,-720z" clip-rule="nonzero" id="svg_1"/>
 </clipPath>

 <g>
  <title>Layer 1</title>
  <path stroke="null" fill="#ffffff" d="m276.49915,167.49191l3.66804,0l0,10.99595l-3.66804,0l0,-10.99595zm-7.33744,0l3.66804,0l0,10.99595l-3.66804,0l0,-10.99595zm5.50275,-6.41533l-0.80939,0.0353l-0.80938,0.08011l-0.78224,0.12493l-0.76456,0.18741l-0.74557,0.23088l-0.72925,0.28516l-0.70075,0.32186l-0.66544,0.36532l-0.65728,0.40878l-0.61111,0.44679l-0.59347,0.48074l-0.55814,0.52554l-0.5215,0.55274l-0.4848,0.58804l-0.44952,0.62333l-0.40469,0.64232l-0.36939,0.68583l-0.3232,0.69529l-0.27025,0.72113l-0.24308,0.75778l-0.17927,0.75643l-0.13444,0.78496l-0.08147,0.80124l-0.02717,0.82022l0.02717,0.82026l0.08147,0.80124l0.13444,0.77545l0.17927,0.76589l0.24308,0.74831l0.27025,0.72248l0.3232,0.70345l0.36939,0.66815l0.40469,0.65048l0.44952,0.62469l0.4848,0.58804l0.5215,0.55138l0.55814,0.5269l0.59347,0.48074l0.61111,0.45494l0.65728,0.40062l0.66544,0.37344l0.70075,0.32185l0.72925,0.27569l0.74557,0.23223l0.76456,0.1779l0.78224,0.1426l0.80938,0.08011l0.80939,0.02715l0.81889,-0.02715l0.79988,-0.08011l0.78222,-0.1426l0.76457,-0.1779l0.74555,-0.23223l0.72925,-0.27569l0.69261,-0.32185l0.68308,-0.37344l0.64778,-0.40062l0.61113,-0.45494l0.59345,-0.48074l0.55817,-0.5269l0.51197,-0.55138l0.49433,-0.58804l0.4495,-0.62469l0.40469,-0.65048l0.36939,-0.66815l0.32322,-0.70345l0.27839,-0.72248l0.23494,-0.74831l0.17925,-0.76589l0.13444,-0.77545l0.08147,-0.80124l0.02717,-0.82026l-0.02717,-0.82022l-0.08147,-0.80124l-0.13444,-0.78496l-0.17925,-0.75643l-0.23494,-0.75778l-0.27839,-0.72113l-0.32322,-0.69529l-0.36939,-0.68583l-0.40469,-0.64232l-0.4495,-0.62333l-0.49433,-0.58804l-0.51197,-0.55274l-0.55817,-0.52554l-0.59345,-0.48074l-0.61113,-0.44679l-0.64778,-0.40878l-0.68308,-0.36532l-0.69261,-0.32186l-0.72925,-0.28516l-0.74555,-0.23088l-0.76457,-0.18741l-0.78222,-0.12493l-0.79988,-0.08011l-0.81889,-0.0353zm0,-2.7446l0.92617,0.02714l0.91666,0.08016l0.89088,0.14256l0.88136,0.18741l0.85419,0.24854l0.82705,0.29467l0.80939,0.33814l0.78222,0.40062l0.76457,0.4278l0.72791,0.47258l0.69258,0.52554l0.66544,0.55274l0.63012,0.59755l0.6016,0.62333l0.54866,0.66815l0.51333,0.6953l0.47666,0.73063l0.44,0.74827l0.37753,0.79309l0.35174,0.81075l0.29603,0.82842l0.2431,0.85553l0.18875,0.88275l0.15347,0.89087l0.08011,0.9085l0.02717,0.93568l-0.02717,0.92621l-0.08011,0.90986l-0.15347,0.89902l-0.18875,0.8732l-0.2431,0.85557l-0.29603,0.83794l-0.35174,0.81071l-0.37753,0.77545l-0.44,0.75778l-0.47666,0.73064l-0.51333,0.69394l-0.54866,0.65999l-0.6016,0.64101l-0.63012,0.58803l-0.66544,0.56221l-0.69258,0.51608l-0.72791,0.47258l-0.76457,0.43727l-0.78222,0.38299l-0.80939,0.33813l-0.82705,0.29467l-0.85419,0.24855l-0.88136,0.19689l-0.89088,0.1426l-0.91666,0.08828l-0.92617,0.02718l-0.92618,-0.02718l-0.91667,-0.08828l-0.89086,-0.1426l-0.87185,-0.19689l-0.85421,-0.24855l-0.83655,-0.29467l-0.80939,-0.33813l-0.78222,-0.38299l-0.75506,-0.43727l-0.73741,-0.47258l-0.69261,-0.51608l-0.67494,-0.56221l-0.62061,-0.58803l-0.6016,-0.64101l-0.54864,-0.65999l-0.51334,-0.69394l-0.48482,-0.73064l-0.43186,-0.75778l-0.38703,-0.77545l-0.35038,-0.81071l-0.28789,-0.83794l-0.24308,-0.85557l-0.18877,-0.8732l-0.14395,-0.89902l-0.08963,-0.90986l-0.02717,-0.92621l0.02717,-0.93568l0.08963,-0.9085l0.14395,-0.89087l0.18877,-0.88275l0.24308,-0.85553l0.28789,-0.82842l0.35038,-0.81075l0.38703,-0.79309l0.43186,-0.74827l0.48482,-0.73063l0.51334,-0.6953l0.54864,-0.66815l0.6016,-0.62333l0.62061,-0.59755l0.67494,-0.55274l0.69261,-0.52554l0.73741,-0.47258l0.75506,-0.4278l0.78222,-0.40062l0.80939,-0.33814l0.83655,-0.29467l0.85421,-0.24854l0.87185,-0.18741l0.89086,-0.14256l0.91667,-0.08016l0.92618,-0.02714z" fill-rule="evenodd" id="svg_124"/>
  <path fill="#ec4e45" d="m427.03763,568.80237l16.258,0l0,16.3689l-16.258,0l0,-16.3689zm8.129,-9.55005l-1.19568,0.05255l-1.19568,0.11926l-1.15555,0.18598l-1.12948,0.27899l-1.10138,0.34369l-1.07733,0.4245l-1.03519,0.47913l-0.983,0.54382l-0.97101,0.60852l-0.90277,0.6651l-0.87671,0.71564l-0.82453,0.78234l-0.77035,0.82282l-0.71622,0.87537l-0.66403,0.92791l-0.59784,0.95618l-0.54568,1.02094l-0.47748,1.03503l-0.39923,1.07349l-0.3591,1.12805l-0.2648,1.12604l-0.19864,1.16851l-0.12036,1.19275l-0.04013,1.22101l0.04013,1.22107l0.12036,1.19275l0.19864,1.15436l0.2648,1.14013l0.3591,1.11396l0.39923,1.0755l0.47748,1.04718l0.54568,0.99463l0.59784,0.96832l0.66403,0.92993l0.71622,0.87537l0.77035,0.8208l0.82453,0.78436l0.87671,0.71564l0.90277,0.67724l0.97101,0.59638l0.983,0.55591l1.03519,0.47912l1.07733,0.4104l1.10138,0.34571l1.12948,0.26483l1.15555,0.21228l1.19568,0.11926l1.19568,0.04041l1.20971,-0.04041l1.18165,-0.11926l1.15554,-0.21228l1.12949,-0.26483l1.10138,-0.34571l1.07733,-0.4104l1.02313,-0.47912l1.00913,-0.55591l0.95694,-0.59638l0.90277,-0.67724l0.87671,-0.71564l0.82452,-0.78436l0.75632,-0.8208l0.73025,-0.87537l0.66404,-0.92993l0.59783,-0.96832l0.54569,-0.99463l0.47748,-1.04718l0.41125,-1.0755l0.34708,-1.11396l0.2648,-1.14013l0.19864,-1.15436l0.12036,-1.19275l0.04013,-1.22107l-0.04013,-1.22101l-0.12036,-1.19275l-0.19864,-1.16851l-0.2648,-1.12604l-0.34708,-1.12805l-0.41125,-1.07349l-0.47748,-1.03503l-0.54569,-1.02094l-0.59783,-0.95618l-0.66404,-0.92791l-0.73025,-0.87537l-0.75632,-0.82282l-0.82452,-0.78234l-0.87671,-0.71564l-0.90277,-0.6651l-0.95694,-0.60852l-1.00913,-0.54382l-1.02313,-0.47913l-1.07733,-0.4245l-1.10138,-0.34369l-1.12949,-0.27899l-1.15554,-0.18598l-1.18165,-0.11926l-1.20971,-0.05255zm0,-4.08569l1.36819,0.0404l1.35419,0.11933l1.31604,0.21222l1.302,0.27899l1.2619,0.36999l1.22174,0.43866l1.19568,0.50336l1.15555,0.59637l1.12949,0.63684l1.07531,0.7035l1.02314,0.78234l0.98303,0.82282l0.93088,0.88953l0.88873,0.92791l0.81049,0.99463l0.75833,1.03504l0.70416,1.08764l0.64999,1.11389l0.55774,1.18061l0.51959,1.20691l0.43735,1.23321l0.3591,1.27356l0.27887,1.31409l0.22669,1.32617l0.11837,1.35242l0.0401,1.39288l-0.0401,1.37878l-0.11837,1.35444l-0.22669,1.33831l-0.27887,1.29987l-0.3591,1.27362l-0.43735,1.24738l-0.51959,1.20684l-0.55774,1.15436l-0.64999,1.12805l-0.70416,1.08765l-0.75833,1.03302l-0.81049,0.98248l-0.88873,0.95423l-0.93088,0.87536l-0.98303,0.83692l-1.02314,0.76825l-1.07531,0.70349l-1.12949,0.65094l-1.15555,0.57013l-1.19568,0.50335l-1.22174,0.43866l-1.2619,0.37l-1.302,0.29309l-1.31604,0.21228l-1.35419,0.13141l-1.36819,0.04046l-1.36823,-0.04046l-1.35415,-0.13141l-1.31604,-0.21228l-1.28797,-0.29309l-1.26187,-0.37l-1.23581,-0.43866l-1.19568,-0.50335l-1.15558,-0.57013l-1.11541,-0.65094l-1.08936,-0.70349l-1.02313,-0.76825l-0.99707,-0.83692l-0.91684,-0.87536l-0.88873,-0.95423l-0.81049,-0.98248l-0.75833,-1.03302l-0.71622,-1.08765l-0.63794,-1.12805l-0.57177,-1.15436l-0.51758,-1.20684l-0.42533,-1.24738l-0.3591,-1.27362l-0.27887,-1.29987l-0.21264,-1.33831l-0.13242,-1.35444l-0.0401,-1.37878l0.0401,-1.39288l0.13242,-1.35242l0.21264,-1.32617l0.27887,-1.31409l0.3591,-1.27356l0.42533,-1.23321l0.51758,-1.20691l0.57177,-1.18061l0.63794,-1.11389l0.71622,-1.08764l0.75833,-1.03504l0.81049,-0.99463l0.88873,-0.92791l0.91684,-0.88953l0.99707,-0.82282l1.02313,-0.78234l1.08936,-0.7035l1.11541,-0.63684l1.15558,-0.59637l1.19568,-0.50336l1.23581,-0.43866l1.26187,-0.36999l1.28797,-0.27899l1.31604,-0.21222l1.35415,-0.11933l1.36823,-0.0404z" fill-rule="evenodd" id="svg_125"/>
  <path stroke="null" fill="#ec4e45" d="m217.15721,9.75287l0,9.16129l-6.30995,-4.58066l6.30995,-4.58062zm-7.21233,0l0,9.16129l-6.31134,-4.58066l6.31134,-4.58062zm1.80341,-7.3415l-0.7956,0.0353l-0.79556,0.08011l-0.7689,0.12493l-0.75153,0.18741l-0.73286,0.23088l-0.71684,0.28516l-0.68879,0.32185l-0.6541,0.36532l-0.64606,0.40878l-0.60073,0.44679l-0.58332,0.48073l-0.54863,0.52555l-0.51262,0.55274l-0.47655,0.58803l-0.44185,0.62334l-0.39778,0.64232l-0.36309,0.68582l-0.31771,0.6953l-0.26561,0.72112l-0.23895,0.75778l-0.1762,0.75643l-0.13218,0.78496l-0.08007,0.80124l-0.0267,0.82022l0.0267,0.82026l0.08007,0.80124l0.13218,0.77544l0.1762,0.7659l0.23895,0.74831l0.26561,0.72248l0.31771,0.70345l0.36309,0.66815l0.39778,0.65048l0.44185,0.62469l0.47655,0.58803l0.51262,0.55138l0.54863,0.52691l0.58332,0.48073l0.60073,0.45495l0.64606,0.40062l0.6541,0.37344l0.68879,0.32186l0.71684,0.27569l0.73286,0.23223l0.75153,0.1779l0.7689,0.1426l0.79556,0.08012l0.7956,0.02714l0.80494,-0.02714l0.78622,-0.08012l0.7689,-0.1426l0.75153,-0.1779l0.73286,-0.23223l0.71684,-0.27569l0.68075,-0.32186l0.67146,-0.37344l0.63673,-0.40062l0.60069,-0.45495l0.58336,-0.48073l0.54863,-0.52691l0.50325,-0.55138l0.48592,-0.58803l0.44181,-0.62469l0.39782,-0.65048l0.36309,-0.66815l0.31767,-0.70345l0.27368,-0.72248l0.23092,-0.74831l0.1762,-0.7659l0.13218,-0.77544l0.08007,-0.80124l0.0267,-0.82026l-0.0267,-0.82022l-0.08007,-0.80124l-0.13218,-0.78496l-0.1762,-0.75643l-0.23092,-0.75778l-0.27368,-0.72112l-0.31767,-0.6953l-0.36309,-0.68582l-0.39782,-0.64232l-0.44181,-0.62334l-0.48592,-0.58803l-0.50325,-0.55274l-0.54863,-0.52555l-0.58336,-0.48073l-0.60069,-0.44679l-0.63673,-0.40878l-0.67146,-0.36532l-0.68075,-0.32185l-0.71684,-0.28516l-0.73286,-0.23088l-0.75153,-0.18741l-0.7689,-0.12493l-0.78622,-0.08011l-0.80494,-0.0353zm0,-2.74461l0.91037,0.02715l0.90107,0.08015l0.87567,0.14256l0.86634,0.18741l0.83963,0.24855l0.81293,0.29467l0.7956,0.33814l0.7689,0.40062l0.75153,0.4278l0.71549,0.47258l0.6808,0.52555l0.6541,0.55274l0.61936,0.59754l0.59136,0.62334l0.53929,0.66815l0.50459,0.69529l0.46856,0.73064l0.43248,0.74827l0.37112,0.79308l0.34572,0.81075l0.29101,0.82843l0.23895,0.85553l0.18554,0.88275l0.15084,0.89087l0.07877,0.90849l0.0267,0.93569l-0.0267,0.92621l-0.07877,0.90985l-0.15084,0.89903l-0.18554,0.8732l-0.23895,0.85557l-0.29101,0.83793l-0.34572,0.81071l-0.37112,0.77545l-0.43248,0.75778l-0.46856,0.73064l-0.50459,0.69394l-0.53929,0.65999l-0.59136,0.64101l-0.61936,0.58804l-0.6541,0.5622l-0.6808,0.51608l-0.71549,0.47258l-0.75153,0.43727l-0.7689,0.38299l-0.7956,0.33814l-0.81293,0.29467l-0.83963,0.24855l-0.86634,0.19689l-0.87567,0.1426l-0.90107,0.08828l-0.91037,0.02718l-0.9104,-0.02718l-0.90103,-0.08828l-0.87568,-0.1426l-0.857,-0.19689l-0.83963,-0.24855l-0.82231,-0.29467l-0.79556,-0.33814l-0.7689,-0.38299l-0.74219,-0.43727l-0.72483,-0.47258l-0.68079,-0.51608l-0.66343,-0.5622l-0.61002,-0.58804l-0.59135,-0.64101l-0.53929,-0.65999l-0.5046,-0.69394l-0.47655,-0.73064l-0.42452,-0.75778l-0.38041,-0.77545l-0.34442,-0.81071l-0.28297,-0.83793l-0.23895,-0.85557l-0.18554,-0.8732l-0.14151,-0.89903l-0.0881,-0.90985l-0.0267,-0.92621l0.0267,-0.93569l0.0881,-0.90849l0.14151,-0.89087l0.18554,-0.88275l0.23895,-0.85553l0.28297,-0.82843l0.34442,-0.81075l0.38041,-0.79308l0.42452,-0.74827l0.47655,-0.73064l0.5046,-0.69529l0.53929,-0.66815l0.59135,-0.62334l0.61002,-0.59754l0.66343,-0.55274l0.68079,-0.52555l0.72483,-0.47258l0.74219,-0.4278l0.7689,-0.40062l0.79556,-0.33814l0.82231,-0.29467l0.83963,-0.24855l0.857,-0.18741l0.87568,-0.14256l0.90103,-0.08015l0.9104,-0.02715z" fill-rule="evenodd" id="svg_132"/>
  <path stroke="null" fill="#ec4e45" d="m16.92858,10.41953l6.45727,4.58062l-6.45727,4.58066l0,-9.16129zm-7.37909,0l6.45585,4.58062l-6.45585,4.58066l0,-9.16129zm5.53398,-7.3415l-0.814,0.0353l-0.81396,0.08011l-0.78668,0.12493l-0.76891,0.18741l-0.7498,0.23088l-0.73342,0.28516l-0.70471,0.32185l-0.66922,0.36532l-0.66101,0.40878l-0.61462,0.44679l-0.59681,0.48073l-0.56131,0.52555l-0.52448,0.55274l-0.48757,0.58803l-0.45207,0.62334l-0.40698,0.64232l-0.37148,0.68582l-0.32506,0.6953l-0.27175,0.72112l-0.24447,0.75778l-0.18028,0.75643l-0.13522,0.78496l-0.08193,0.80124l-0.02732,0.82022l0.02732,0.82026l0.08193,0.80124l0.13522,0.77544l0.18028,0.7659l0.24447,0.74831l0.27175,0.72248l0.32506,0.70345l0.37148,0.66815l0.40698,0.65048l0.45207,0.62469l0.48757,0.58803l0.52448,0.55138l0.56131,0.52691l0.59681,0.48073l0.61462,0.45495l0.66101,0.40062l0.66922,0.37344l0.70471,0.32186l0.73342,0.27569l0.7498,0.23223l0.76891,0.1779l0.78668,0.1426l0.81396,0.08012l0.814,0.02714l0.82355,-0.02714l0.8044,-0.08012l0.78668,-0.1426l0.76891,-0.1779l0.7498,-0.23223l0.73342,-0.27569l0.69649,-0.32186l0.68699,-0.37344l0.65145,-0.40062l0.61458,-0.45495l0.59685,-0.48073l0.56131,-0.52691l0.51489,-0.55138l0.49716,-0.58803l0.45202,-0.62469l0.40703,-0.65048l0.37148,-0.66815l0.32502,-0.70345l0.28001,-0.72248l0.23625,-0.74831l0.18028,-0.7659l0.13522,-0.77544l0.08193,-0.80124l0.02732,-0.82026l-0.02732,-0.82022l-0.08193,-0.80124l-0.13522,-0.78496l-0.18028,-0.75643l-0.23625,-0.75778l-0.28001,-0.72112l-0.32502,-0.6953l-0.37148,-0.68582l-0.40703,-0.64232l-0.45202,-0.62334l-0.49716,-0.58803l-0.51489,-0.55274l-0.56131,-0.52555l-0.59685,-0.48073l-0.61458,-0.44679l-0.65145,-0.40878l-0.68699,-0.36532l-0.69649,-0.32185l-0.73342,-0.28516l-0.7498,-0.23088l-0.76891,-0.18741l-0.78668,-0.12493l-0.8044,-0.08011l-0.82355,-0.0353zm0,-2.74461l0.93142,0.02715l0.9219,0.08015l0.89592,0.14256l0.88637,0.18741l0.85904,0.24855l0.83173,0.29467l0.814,0.33814l0.78668,0.40062l0.76891,0.4278l0.73204,0.47258l0.69654,0.52555l0.66922,0.55274l0.63368,0.59754l0.60502,0.62334l0.55176,0.66815l0.51626,0.69529l0.47939,0.73064l0.44247,0.74827l0.3797,0.79308l0.35371,0.81075l0.29774,0.82843l0.24447,0.85553l0.18983,0.88275l0.15433,0.89087l0.08059,0.90849l0.02732,0.93569l-0.02732,0.92621l-0.08059,0.90985l-0.15433,0.89903l-0.18983,0.8732l-0.24447,0.85557l-0.29774,0.83793l-0.35371,0.81071l-0.3797,0.77545l-0.44247,0.75778l-0.47939,0.73064l-0.51626,0.69394l-0.55176,0.65999l-0.60502,0.64101l-0.63368,0.58804l-0.66922,0.5622l-0.69654,0.51608l-0.73204,0.47258l-0.76891,0.43727l-0.78668,0.38299l-0.814,0.33814l-0.83173,0.29467l-0.85904,0.24855l-0.88637,0.19689l-0.89592,0.1426l-0.9219,0.08828l-0.93142,0.02718l-0.93146,-0.02718l-0.92186,-0.08828l-0.89592,-0.1426l-0.87682,-0.19689l-0.85905,-0.24855l-0.84132,-0.29467l-0.81396,-0.33814l-0.78668,-0.38299l-0.75935,-0.43727l-0.74159,-0.47258l-0.69654,-0.51608l-0.67877,-0.5622l-0.62413,-0.58804l-0.60502,-0.64101l-0.55176,-0.65999l-0.51626,-0.69394l-0.48757,-0.73064l-0.43434,-0.75778l-0.38921,-0.77545l-0.35237,-0.81071l-0.28952,-0.83793l-0.24447,-0.85557l-0.18983,-0.8732l-0.14479,-0.89903l-0.09013,-0.90985l-0.02732,-0.92621l0.02732,-0.93569l0.09013,-0.90849l0.14479,-0.89087l0.18983,-0.88275l0.24447,-0.85553l0.28952,-0.82843l0.35237,-0.81075l0.38921,-0.79308l0.43434,-0.74827l0.48757,-0.73064l0.51626,-0.69529l0.55176,-0.66815l0.60502,-0.62334l0.62413,-0.59754l0.67877,-0.55274l0.69654,-0.52555l0.74159,-0.47258l0.75935,-0.4278l0.78668,-0.40062l0.81396,-0.33814l0.84132,-0.29467l0.85905,-0.24855l0.87682,-0.18741l0.89592,-0.14256l0.92186,-0.08015l0.93146,-0.02715z" fill-rule="evenodd" id="svg_133"/>
  <g stroke="null" id="svg_2">
   <path stroke="null" fill="#ec4e45" d="m309.31075,31.37416l-0.81396,0.0349l-0.814,0.0792l-0.78668,0.12351l-0.76891,0.18528l-0.7498,0.22825l-0.73337,0.28192l-0.70476,0.3182l-0.66922,0.36117l-0.66101,0.40413l-0.61458,0.44171l-0.59685,0.47527l-0.56131,0.51957l-0.52444,0.54646l-0.48757,0.58136l-0.45206,0.61625l-0.40703,0.63502l-0.37148,0.67803l-0.32502,0.6874l-0.2718,0.71293l-0.24447,0.74917l-0.18028,0.74783l-0.13522,0.77604l-0.08193,0.79214l-0.02732,0.8109l0.02732,0.81094l0.08193,0.79214l0.13522,0.76664l0.18028,0.75719l0.24447,0.73981l0.2718,0.71427l0.32502,0.69546l0.37148,0.66055l0.40703,0.64309l0.45206,0.61759l0.48757,0.58136l0.52444,0.54511l0.56131,0.52091l0.59685,0.47527l0.61458,0.44977l0.66101,0.39607l0.66922,0.36919l0.70476,0.3182l0.73337,0.27256l0.7498,0.22959l0.76891,0.17589l0.78668,0.14098l0.814,0.0792l0.81396,0.02683l0.82355,-0.02683l0.80444,-0.0792l0.78663,-0.14098l0.76891,-0.17589l0.7498,-0.22959l0.73342,-0.27256l0.69654,-0.3182l0.68695,-0.36919l0.65149,-0.39607l0.61458,-0.44977l0.59681,-0.47527l0.56135,-0.52091l0.51489,-0.54511l0.49712,-0.58136l0.45207,-0.61759l0.40698,-0.64309l0.37148,-0.66055l0.32506,-0.69546l0.27997,-0.71427l0.23629,-0.73981l0.18028,-0.75719l0.13518,-0.76664l0.08197,-0.79214l0.02727,-0.81094l-0.02727,-0.8109l-0.08197,-0.79214l-0.13518,-0.77604l-0.18028,-0.74783l-0.23629,-0.74917l-0.27997,-0.71293l-0.32506,-0.6874l-0.37148,-0.67803l-0.40698,-0.63502l-0.45207,-0.61625l-0.49712,-0.58136l-0.51489,-0.54646l-0.56135,-0.51957l-0.59681,-0.47527l-0.61458,-0.44171l-0.65149,-0.40413l-0.68695,-0.36117l-0.69654,-0.3182l-0.73342,-0.28192l-0.7498,-0.22825l-0.76891,-0.18528l-0.78663,-0.12351l-0.80444,-0.0792l-0.82355,-0.0349zm0,-2.71341l0.93146,0.02683l0.92186,0.07925l0.89592,0.14093l0.88637,0.18529l0.85904,0.24572l0.83177,0.29133l0.81396,0.33429l0.78668,0.39606l0.76891,0.42294l0.73204,0.46721l0.69654,0.51958l0.66922,0.54646l0.63372,0.59075l0.60502,0.61626l0.55176,0.66056l0.51622,0.6874l0.47939,0.72233l0.44252,0.73976l0.37966,0.78407l0.35371,0.80154l0.29774,0.81901l0.24447,0.8458l0.18988,0.87272l0.15428,0.88074l0.08059,0.89818l0.02732,0.92505l-0.02732,0.91568l-0.08059,0.89952l-0.15428,0.88881l-0.18988,0.86328l-0.24447,0.84584l-0.29774,0.82841l-0.35371,0.8015l-0.37966,0.76664l-0.44252,0.74917l-0.47939,0.72234l-0.51622,0.68605l-0.55176,0.65249l-0.60502,0.63373l-0.63372,0.58135l-0.66922,0.55582l-0.69654,0.51021l-0.73204,0.46721l-0.76891,0.43231l-0.78668,0.37864l-0.81396,0.33429l-0.83177,0.29133l-0.85904,0.24573l-0.88637,0.19465l-0.89592,0.14098l-0.92186,0.08727l-0.93146,0.02687l-0.93142,-0.02687l-0.9219,-0.08727l-0.89592,-0.14098l-0.87682,-0.19465l-0.85905,-0.24573l-0.84128,-0.29133l-0.814,-0.33429l-0.78668,-0.37864l-0.75935,-0.43231l-0.74159,-0.46721l-0.69654,-0.51021l-0.67877,-0.55582l-0.62413,-0.58135l-0.60502,-0.63373l-0.55176,-0.65249l-0.51626,-0.68605l-0.48757,-0.72234l-0.4343,-0.74917l-0.38925,-0.76664l-0.35233,-0.8015l-0.28956,-0.82841l-0.24447,-0.84584l-0.18983,-0.86328l-0.14479,-0.88881l-0.09013,-0.89952l-0.02732,-0.91568l0.02732,-0.92505l0.09013,-0.89818l0.14479,-0.88074l0.18983,-0.87272l0.24447,-0.8458l0.28956,-0.81901l0.35233,-0.80154l0.38925,-0.78407l0.4343,-0.73976l0.48757,-0.72233l0.51626,-0.6874l0.55176,-0.66056l0.60502,-0.61626l0.62413,-0.59075l0.67877,-0.54646l0.69654,-0.51958l0.74159,-0.46721l0.75935,-0.42294l0.78668,-0.39606l0.814,-0.33429l0.84128,-0.29133l0.85905,-0.24572l0.87682,-0.18529l0.89592,-0.14093l0.9219,-0.07925l0.93142,-0.02683z" fill-rule="evenodd" id="svg_126"/>
   <path stroke="null" fill="#ec4e45" d="m314.80584,37.74086l0,10.83987l-7.37508,-5.41089l7.37508,-5.42897z" fill-rule="evenodd" id="svg_127"/>
   <path stroke="null" fill="#ec4e45" d="m303.74325,37.74086l3.68759,0l0,10.83987l-3.68759,0l0,-10.83987z" fill-rule="evenodd" id="svg_128"/>
  </g>
  <g stroke="null" id="svg_3">
   <path stroke="null" fill="#ec4e45" d="m335.74719,91.74386l-0.814,0.0353l-0.81396,0.08011l-0.78668,0.12493l-0.76891,0.18741l-0.7498,0.23088l-0.73342,0.28516l-0.70471,0.32185l-0.66922,0.36532l-0.66101,0.40878l-0.61462,0.44679l-0.59681,0.48074l-0.56131,0.52554l-0.52448,0.55274l-0.48757,0.58804l-0.45207,0.62333l-0.40698,0.64232l-0.37148,0.68582l-0.32506,0.6953l-0.27175,0.72112l-0.24447,0.75778l-0.18028,0.75642l-0.13522,0.78496l-0.08193,0.80124l-0.02732,0.82022l0.02732,0.82026l0.08193,0.80124l0.13522,0.77545l0.18028,0.76589l0.24447,0.74831l0.27175,0.72248l0.32506,0.70345l0.37148,0.66814l0.40698,0.65048l0.45207,0.62469l0.48757,0.58804l0.52448,0.55138l0.56131,0.5269l0.59681,0.48074l0.61462,0.45494l0.66101,0.40062l0.66922,0.37343l0.70471,0.32186l0.73342,0.27569l0.7498,0.23223l0.76891,0.17791l0.78668,0.1426l0.81396,0.08011l0.814,0.02714l0.82355,-0.02714l0.8044,-0.08011l0.78668,-0.1426l0.76891,-0.17791l0.7498,-0.23223l0.73342,-0.27569l0.69649,-0.32186l0.68699,-0.37343l0.65145,-0.40062l0.61458,-0.45494l0.59685,-0.48074l0.56131,-0.5269l0.51489,-0.55138l0.49716,-0.58804l0.45202,-0.62469l0.40703,-0.65048l0.37148,-0.66814l0.32502,-0.70345l0.28001,-0.72248l0.23625,-0.74831l0.18028,-0.76589l0.13522,-0.77545l0.08193,-0.80124l0.02732,-0.82026l-0.02732,-0.82022l-0.08193,-0.80124l-0.13522,-0.78496l-0.18028,-0.75642l-0.23625,-0.75778l-0.28001,-0.72112l-0.32502,-0.6953l-0.37148,-0.68582l-0.40703,-0.64232l-0.45202,-0.62333l-0.49716,-0.58804l-0.51489,-0.55274l-0.56131,-0.52554l-0.59685,-0.48074l-0.61458,-0.44679l-0.65145,-0.40878l-0.68699,-0.36532l-0.69649,-0.32185l-0.73342,-0.28516l-0.7498,-0.23088l-0.76891,-0.18741l-0.78668,-0.12493l-0.8044,-0.08011l-0.82355,-0.0353zm0,-2.7446l0.93142,0.02714l0.9219,0.08016l0.89592,0.14255l0.88637,0.18742l0.85904,0.24854l0.83173,0.29467l0.814,0.33814l0.78668,0.40062l0.76891,0.4278l0.73204,0.47258l0.69654,0.52555l0.66922,0.55274l0.63368,0.59754l0.60502,0.62334l0.55176,0.66815l0.51626,0.6953l0.47939,0.73063l0.44247,0.74827l0.3797,0.79309l0.35371,0.81075l0.29774,0.82842l0.24447,0.85553l0.18983,0.88275l0.15433,0.89087l0.08059,0.9085l0.02732,0.93568l-0.02732,0.92621l-0.08059,0.90986l-0.15433,0.89902l-0.18983,0.8732l-0.24447,0.85557l-0.29774,0.83793l-0.35371,0.81071l-0.3797,0.77545l-0.44247,0.75778l-0.47939,0.73064l-0.51626,0.69394l-0.55176,0.65999l-0.60502,0.64101l-0.63368,0.58803l-0.66922,0.56221l-0.69654,0.51608l-0.73204,0.47258l-0.76891,0.43727l-0.78668,0.38299l-0.814,0.33813l-0.83173,0.29467l-0.85904,0.24855l-0.88637,0.19689l-0.89592,0.1426l-0.9219,0.08828l-0.93142,0.02718l-0.93146,-0.02718l-0.92186,-0.08828l-0.89592,-0.1426l-0.87682,-0.19689l-0.85905,-0.24855l-0.84132,-0.29467l-0.81396,-0.33813l-0.78668,-0.38299l-0.75935,-0.43727l-0.74159,-0.47258l-0.69654,-0.51608l-0.67877,-0.56221l-0.62413,-0.58803l-0.60502,-0.64101l-0.55176,-0.65999l-0.51626,-0.69394l-0.48757,-0.73064l-0.43434,-0.75778l-0.38921,-0.77545l-0.35237,-0.81071l-0.28952,-0.83793l-0.24447,-0.85557l-0.18983,-0.8732l-0.14479,-0.89902l-0.09013,-0.90986l-0.02732,-0.92621l0.02732,-0.93568l0.09013,-0.9085l0.14479,-0.89087l0.18983,-0.88275l0.24447,-0.85553l0.28952,-0.82842l0.35237,-0.81075l0.38921,-0.79309l0.43434,-0.74827l0.48757,-0.73063l0.51626,-0.6953l0.55176,-0.66815l0.60502,-0.62334l0.62413,-0.59754l0.67877,-0.55274l0.69654,-0.52555l0.74159,-0.47258l0.75935,-0.4278l0.78668,-0.40062l0.81396,-0.33814l0.84132,-0.29467l0.85905,-0.24854l0.87682,-0.18742l0.89592,-0.14255l0.92186,-0.08016l0.93146,-0.02714z" fill-rule="evenodd" id="svg_129"/>
   <path stroke="null" fill="#ec4e45" d="m330.17967,98.18375l7.37509,5.49137l-7.37509,5.47309l0,-10.96446z" fill-rule="evenodd" id="svg_130"/>
   <path stroke="null" fill="#ec4e45" d="m337.55469,98.18375l3.68759,0l0,10.96446l-3.68759,0l0,-10.96446z" fill-rule="evenodd" id="svg_131"/>
  </g>
 </g>
</svg>