<svg width="30" height="30" xmlns="http://www.w3.org/2000/svg" stroke-miterlimit="10" stroke-linecap="square" fill="none" version="1.1">
 <clipPath id="p38.0">
  <path id="svg_1" clip-rule="nonzero" d="m0,0l1280,0l0,720l-1280,0l0,-720z"/>
 </clipPath>

 <g>
  <title>Layer 1</title>
  <path stroke="#ec4e45" stroke-width="1" id="svg_30" fill-rule="evenodd" d="m15.08333,0.33338c-8.44845,0 -14.74999,6.81186 -14.74999,14.31905c0,8.15631 6.30154,15.01434 14.74999,15.01434c8.44845,0 14.74999,-6.85803 14.74999,-15.01434c0,-7.50719 -6.30154,-14.31905 -14.74999,-14.31905zm0,27.29498c-7.01716,0 -13.36512,-5.46877 -13.36512,-12.97593c0,-6.81187 6.34796,-12.28067 13.36512,-12.28067c7.01716,0 13.36512,5.4688 13.36512,12.28067c0,7.50715 -6.34796,12.97593 -13.36512,12.97593zm6.30154,-13.67126c-9.83333,0 -9.83333,0 -9.83333,0c4.24741,-3.38283 4.24741,-3.38283 4.24741,-3.38283c0,-0.69532 0,-1.38927 0,-1.38927c-0.71562,-0.69532 -1.4313,-0.69532 -1.4313,0c-5.58587,4.77209 -5.58587,4.77209 -5.58587,4.77209l0,0.69533c0,0.6953 0,0.6953 0,1.34445c5.58587,4.81826 5.58587,4.81826 5.58587,4.81826c0,0.64915 0.71568,0.64915 1.4313,0c0,0 0,-0.69394 0,-1.38927c-4.24741,-3.429 -4.24741,-3.429 -4.24741,-3.429c9.83333,0 9.83333,0 9.83333,0c0.71561,0 1.43129,-0.64915 1.43129,-1.34445c0,0 -0.71568,-0.69533 -1.43129,-0.69533z" fill="#ec4e45"/>
 </g>
</svg>