<svg width="30" height="30" xmlns="http://www.w3.org/2000/svg" stroke-miterlimit="10" stroke-linecap="square" fill="none" version="1.1">
 <clipPath id="p38.0">
  <path id="svg_1" clip-rule="nonzero" d="m0,0l1280,0l0,720l-1280,0l0,-720z"/>
 </clipPath>

 <g>
  <title>Layer 1</title>
 <path stroke="white" stroke-width="1" id="svg_30" fill-rule="evenodd" d="m15.08333,0.33338c8.54376,0 14.9164,6.81186 14.9164,14.31905c0,8.15631 -6.37264,15.01434 -14.9164,15.01434c-8.54376,0 -14.9164,-6.85803 -14.9164,-15.01434c0,-7.50719 6.37264,-14.31905 14.9164,-14.31905zm0,27.29498c7.09632,0 13.5159,-5.46877 13.5159,-12.97593c0,-6.81187 -6.41958,-12.28067 -13.5159,-12.28067c-7.09632,0 -13.5159,5.4688 -13.5159,12.28067c0,7.50715 6.41958,12.97593 13.5159,12.97593zm-6.37264,-13.67126c9.94427,0 9.94427,0 9.94427,0c-4.29533,-3.38283 -4.29533,-3.38283 -4.29533,-3.38283c0,-0.69532 0,-1.38927 0,-1.38927c0.7237,-0.69532 1.44745,-0.69532 1.44745,0c5.64889,4.77209 5.64889,4.77209 5.64889,4.77209l0,0.69533c0,0.6953 0,0.6953 0,1.34445c-5.64889,4.81826 -5.64889,4.81826 -5.64889,4.81826c0,0.64915 -0.72375,0.64915 -1.44745,0c0,0 0,-0.69394 0,-1.38927c4.29533,-3.429 4.29533,-3.429 4.29533,-3.429c-9.94427,0 -9.94427,0 -9.94427,0c-0.72369,0 -1.44744,-0.64915 -1.44744,-1.34445c0,0 0.72375,-0.69533 1.44744,-0.69533z" fill="white"/>
 </g>
</svg>