<?xml version="1.0" encoding="utf-8"?>
<!-- Generator: Adobe Illustrator 23.0.0, SVG Export Plug-In . SVG Version: 6.00 Build 0)  -->
<svg version="1.1" id="Layer_1" xmlns="http://www.w3.org/2000/svg" xmlns:xlink="http://www.w3.org/1999/xlink" x="0px" y="0px"
	 viewBox="0 0 181.1 51.7" style="enable-background:new 0 0 181.1 51.7;" xml:space="preserve">
<style type="text/css">
	.st0{fill:#EF3E46;}
	.st1{fill:none;stroke:#EF3E46;stroke-miterlimit:10;}
	.st2{enable-background:new    ;}
	.st3{clip-path:url(#SVGID_2_);}
	.st4{clip-path:url(#SVGID_4_);}
	.st5{fill:none;stroke:#EF3E46;stroke-width:50;stroke-miterlimit:10;}
	.st6{fill:none;stroke:#FFFFFF;stroke-width:10;stroke-miterlimit:10;}
	.st7{clip-path:url(#SVGID_6_);}
	.st8{clip-path:url(#SVGID_8_);}
	.st9{fill:none;stroke:#EF3E46;stroke-width:20;stroke-miterlimit:10;}
	.st10{clip-path:url(#SVGID_10_);}
	.st11{clip-path:url(#SVGID_12_);}
	.st12{clip-path:url(#SVGID_14_);}
	.st13{clip-path:url(#SVGID_16_);}
	.st14{clip-path:url(#SVGID_18_);}
	.st15{clip-path:url(#SVGID_20_);}
	.st16{clip-path:url(#SVGID_22_);}
	.st17{fill:#FFFFFF;}
	.st18{clip-path:url(#SVGID_24_);}
</style>
<g>
	<g class="st2">
		<g>
			<path class="st0" d="M60.9,2.2l-5.9,4.5c-1.7,0.3-3.3,0.7-4.8,1.1c-1.6,0.4-3,0.8-4.5,1.2c-1.4,0.4-2.8,0.9-4.1,1.3
				c-1.3,0.5-2.6,0.9-3.7,1.4l-2.5-4.6L17.9,8.4c1.9-0.8,3.9-1.5,6-2.2c2.1-0.7,4.3-1.3,6.6-2c2.3-0.6,4.7-1.2,7.1-1.7
				c2.4-0.5,5-1,7.6-1.5L60.9,2.2z"/>
		</g>
		<g>
			<path class="st0" d="M159.7,6.7l-2.9,4.7l-17.5-1.4c-1.3-0.5-2.7-0.9-4.1-1.3c-1.4-0.4-2.9-0.8-4.5-1.2c-1.6-0.4-3.2-0.7-4.8-1
				c-1.7-0.3-3.4-0.6-5.1-0.9l15.9-1.1L131.2,0c2.7,0.4,5.3,0.8,7.8,1.3c2.5,0.5,5,1,7.4,1.6c2.4,0.6,4.7,1.2,6.9,1.8
				C155.6,5.3,157.7,6,159.7,6.7z"/>
		</g>
		<g>
			<path class="st0" d="M31.4,8.8l2.5,4.9c-0.9,0.5-1.8,1.1-2.6,1.6c-0.8,0.6-1.5,1.1-2.1,1.7c-0.6,0.6-1.2,1.2-1.6,1.8
				c-0.4,0.6-0.8,1.2-1,1.9c0,0,0,0,0,0c0,0,0,0,0,0c0,0,0,0,0,0c0,0,0,0,0,0L15.8,17L0.9,21c0,0,0-0.1,0-0.1c0,0,0-0.1,0-0.1
				c0,0,0-0.1,0-0.1c0,0,0-0.1,0-0.1c0.5-1,1.2-2,2-2.9C3.9,16.8,4.8,15.9,6,15c1.1-0.9,2.4-1.7,3.7-2.6c1.4-0.8,2.9-1.6,4.5-2.4
				L31.4,8.8z"/>
		</g>
		<g>
			<path class="st0" d="M172.4,12.6c0.7,0.5,1.4,1,2.1,1.4c0.7,0.5,1.3,1,1.8,1.5c0.6,0.5,1.1,1,1.6,1.6c0.5,0.5,0.9,1.1,1.3,1.6
				l-11.5,3.9l-14.2-4c-0.2-0.3-0.5-0.6-0.8-0.9c-0.3-0.3-0.6-0.6-0.9-0.9c-0.3-0.3-0.7-0.6-1-0.9c-0.4-0.3-0.8-0.6-1.2-0.9
				c-0.4-0.3-0.8-0.6-1.3-0.8c-0.4-0.3-0.9-0.5-1.4-0.8c-0.5-0.3-1-0.5-1.5-0.8c-0.5-0.3-1.1-0.5-1.6-0.7l16.9,1.4l2.9-4.9
				c0.8,0.3,1.6,0.7,2.4,1c0.8,0.4,1.5,0.7,2.3,1.1c0.7,0.4,1.4,0.7,2.1,1.1C171.2,11.8,171.8,12.2,172.4,12.6z"/>
		</g>
		<g>
			<path class="st0" d="M180.4,20.7C180.4,20.7,180.4,20.8,180.4,20.7c0,0.1,0.1,0.2,0.1,0.2c0,0,0,0.1,0,0.1c0,0,0,0.1,0,0.1
				c0.4,1,0.6,2,0.6,3c0,1-0.2,2-0.5,3c-0.4,1-0.9,2-1.6,3c-0.7,1-1.6,2-2.7,2.9l-18.4,1.6l-6.2-6c0.7-0.6,1.2-1.2,1.7-1.8
				c0.5-0.6,0.8-1.2,1.1-1.9c0.3-0.6,0.4-1.3,0.5-1.9c0.1-0.6,0-1.3-0.2-1.9c0,0,0,0,0,0c0,0,0,0,0,0s0,0,0,0s0,0,0,0l13.7,4
				L180.4,20.7z"/>
		</g>
		<g>
			<path class="st0" d="M26.2,23.2c0,0.3,0.1,0.7,0.2,1c0.1,0.3,0.2,0.7,0.3,1c0.1,0.3,0.3,0.7,0.5,1c0.2,0.3,0.4,0.7,0.7,1
				c0.2,0.3,0.5,0.6,0.8,0.9c0.3,0.3,0.6,0.6,1,0.9c0.4,0.3,0.7,0.6,1.1,0.9c0.4,0.3,0.8,0.6,1.3,0.9l-17.4-1.7l-7.5,6.1
				c-0.6-0.4-1.2-0.9-1.7-1.3c-0.5-0.4-1-0.9-1.5-1.3c-0.5-0.5-0.9-0.9-1.3-1.4c-0.4-0.5-0.7-0.9-1-1.4c-0.4-0.6-0.7-1.1-0.9-1.7
				c-0.2-0.6-0.4-1.1-0.5-1.7C0.1,25.9,0,25.3,0,24.8c0-0.6,0.1-1.1,0.2-1.7l14.6-3.9L26.2,23.2z"/>
		</g>
		<g>
			<path class="st0" d="M173.5,35.1c-1.4,1-3.1,2-4.9,2.9c-1.8,0.9-3.9,1.9-6.1,2.7c-2.2,0.9-4.6,1.7-7.2,2.5
				c-2.6,0.8-5.4,1.6-8.3,2.3l-20.2-1.7l4.9-6.5c1.8-0.4,3.4-0.9,5-1.4c1.6-0.5,3.1-1,4.5-1.6c1.4-0.5,2.7-1.1,3.9-1.7
				c1.2-0.6,2.3-1.2,3.3-1.8l5.9,5.9L173.5,35.1z"/>
		</g>
		<g>
			<path class="st0" d="M55,38.8l-19.4,1.5l3.8,6.7c-3.1-0.6-6.1-1.3-8.9-2.1c-2.8-0.7-5.4-1.5-7.8-2.3c-2.4-0.8-4.7-1.7-6.7-2.6
				c-2.1-0.9-3.9-1.8-5.6-2.8l7.3-6L36,33.1c1.2,0.6,2.5,1.1,3.9,1.6c1.4,0.5,2.9,1,4.5,1.5c1.6,0.5,3.3,0.9,5,1.4
				C51.2,38.1,53.1,38.5,55,38.8z"/>
		</g>
		<g>
			<path class="st0" d="M140.7,46.9c-3.1,0.6-6.3,1.2-9.6,1.7c-3.4,0.5-6.8,1-10.4,1.4c-3.6,0.4-7.3,0.7-11.1,1
				c-3.8,0.3-7.7,0.4-11.6,0.6l-14.8-5l15.3-4.8c2.4-0.1,4.7-0.2,7.1-0.4c2.3-0.2,4.6-0.4,6.8-0.6c2.2-0.2,4.3-0.5,6.4-0.8
				c2.1-0.3,4.1-0.7,6-1l-5,6.3L140.7,46.9z"/>
		</g>
		<g>
			<path class="st0" d="M89.8,41.9L75,46.5l15,5.2c-0.1,0-0.2,0-0.4,0c-0.1,0-0.2,0-0.4,0c-0.1,0-0.2,0-0.4,0c-0.1,0-0.2,0-0.4,0
				c-3.9,0-7.7-0.1-11.4-0.3c-3.7-0.2-7.4-0.4-10.9-0.7c-3.6-0.3-7-0.6-10.4-1c-3.3-0.4-6.6-0.9-9.7-1.4l-3.9-6.6l20.3-1.6
				c2,0.3,4.1,0.5,6.2,0.8c2.1,0.2,4.3,0.4,6.5,0.6c2.2,0.2,4.5,0.3,6.8,0.4c2.3,0.1,4.7,0.1,7.1,0.1c0,0,0.1,0,0.1,0
				c0,0,0.1,0,0.1,0c0,0,0.1,0,0.1,0C89.7,41.9,89.7,41.9,89.8,41.9z"/>
		</g>
	</g>
</g>
</svg>
