<?xml version="1.0" encoding="utf-8"?>
<!-- Generator: Adobe Illustrator 23.0.0, SVG Export Plug-In . SVG Version: 6.00 Build 0)  -->
<svg version="1.1" id="Layer_1" xmlns="http://www.w3.org/2000/svg" xmlns:xlink="http://www.w3.org/1999/xlink" x="0px" y="0px"
	 viewBox="0 0 372.6 35.8" style="enable-background:new 0 0 372.6 35.8;" xml:space="preserve">
<style type="text/css">
	.st0{fill:#EF3E46;}
</style>
<polygon class="st0" points="279.44,0 297.92,17.9 279.44,35.8 298.02,35.8 316.6,17.9 298.13,0 "/>
<polygon class="st0" points="307.44,0 325.92,17.9 307.44,35.8 326.02,35.8 344.6,17.9 326.13,0 "/>
<polygon class="st0" points="335.44,0 353.92,17.9 335.44,35.8 354.02,35.8 372.6,17.9 354.13,0 "/>
<polygon class="st0" points="251.49,0 269.98,17.9 251.49,35.8 270.07,35.8 288.66,17.9 270.18,0 "/>
<polygon class="st0" points="223.55,0 242.03,17.9 223.55,35.8 242.13,35.8 260.71,17.9 242.24,0 "/>
<polygon class="st0" points="195.61,0 214.09,17.9 195.61,35.8 214.19,35.8 232.77,17.9 214.3,0 "/>
<polygon class="st0" points="167.66,0 186.14,17.9 167.66,35.8 186.24,35.8 204.83,17.9 186.35,0 "/>
<polygon class="st0" points="139.72,0 158.2,17.9 139.72,35.8 158.3,35.8 176.88,17.9 158.41,0 "/>
<polygon class="st0" points="111.78,0 130.26,17.9 111.78,35.8 130.36,35.8 148.94,17.9 130.46,0 "/>
<polygon class="st0" points="83.83,0 102.31,17.9 83.83,35.8 102.41,35.8 120.99,17.9 102.52,0 "/>
<polygon class="st0" points="55.89,0 74.37,17.9 55.89,35.8 74.47,35.8 93.05,17.9 74.58,0 "/>
<polygon class="st0" points="27.94,0 46.42,17.9 27.94,35.8 46.52,35.8 65.11,17.9 46.63,0 "/>
<polygon class="st0" points="0,0 18.48,17.9 0,35.8 18.58,35.8 37.16,17.9 18.69,0 "/>
</svg>
