<?xml version="1.0" encoding="utf-8"?>
<!-- Generator: Adobe Illustrator 23.0.0, SVG Export Plug-In . SVG Version: 6.00 Build 0)  -->
<svg version="1.1" id="Layer_1" xmlns="http://www.w3.org/2000/svg" xmlns:xlink="http://www.w3.org/1999/xlink" x="0px" y="0px"
	 viewBox="0 0 193 44.8" style="enable-background:new 0 0 193 44.8;" xml:space="preserve">
<style type="text/css">
	.st0{fill:#EF3E46;}
	.st1{fill:none;stroke:#EF3E46;stroke-miterlimit:10;}
	.st2{enable-background:new    ;}
	.st3{clip-path:url(#SVGID_2_);}
	.st4{clip-path:url(#SVGID_4_);}
	.st5{fill:none;stroke:#EF3E46;stroke-width:50;stroke-miterlimit:10;}
	.st6{fill:none;stroke:#FFFFFF;stroke-width:10;stroke-miterlimit:10;}
	.st7{clip-path:url(#SVGID_6_);}
	.st8{clip-path:url(#SVGID_8_);}
	.st9{fill:none;stroke:#EF3E46;stroke-width:20;stroke-miterlimit:10;}
	.st10{clip-path:url(#SVGID_10_);}
	.st11{clip-path:url(#SVGID_12_);}
	.st12{clip-path:url(#SVGID_14_);}
	.st13{clip-path:url(#SVGID_16_);}
	.st14{clip-path:url(#SVGID_18_);}
	.st15{clip-path:url(#SVGID_20_);}
	.st16{clip-path:url(#SVGID_22_);}
	.st17{fill:#FFFFFF;}
	.st18{clip-path:url(#SVGID_24_);}
</style>
<g>
	<g class="st2">
		<g>
			<path class="st0" d="M153.4,3.6l0.7,2.8l-16.4-0.9c-1.4-0.3-2.9-0.5-4.4-0.8c-1.5-0.2-3-0.5-4.5-0.7c-1.5-0.2-3.1-0.4-4.7-0.6
				c-1.6-0.2-3.2-0.4-4.8-0.5l13.2-0.6L125.9,0c2.4,0.2,4.8,0.4,7.1,0.7c2.4,0.3,4.7,0.5,7,0.8c2.3,0.3,4.6,0.6,6.8,1
				C149.1,2.9,151.3,3.2,153.4,3.6z"/>
		</g>
		<g>
			<path class="st0" d="M66.9,1.2l-5.3,2.6c-1.5,0.2-3,0.4-4.4,0.6c-1.5,0.2-2.9,0.5-4.2,0.7c-1.4,0.3-2.7,0.5-4,0.8
				c-1.3,0.3-2.6,0.6-3.8,0.9l-1.4-2.9L27.1,4.9c2-0.5,4-0.9,6.2-1.3c2.1-0.4,4.2-0.8,6.4-1.2c2.2-0.4,4.4-0.7,6.7-1
				c2.2-0.3,4.5-0.6,6.8-0.8L66.9,1.2z"/>
		</g>
		<g>
			<path class="st0" d="M163.8,5.8c1.5,0.4,3,0.8,4.5,1.2c1.5,0.4,2.9,0.8,4.3,1.3c1.4,0.4,2.8,0.9,4.1,1.4c1.3,0.5,2.6,1,3.8,1.5
				l-7.2,2.9l-16.9-2.9c-0.7-0.3-1.4-0.6-2.1-1c-0.7-0.3-1.5-0.6-2.3-0.9c-0.8-0.3-1.6-0.6-2.5-0.8c-0.9-0.3-1.8-0.5-2.7-0.8
				c-0.3-0.1-0.6-0.2-0.9-0.3c-0.3-0.1-0.6-0.2-1-0.2c-0.3-0.1-0.6-0.2-1-0.2c-0.3-0.1-0.7-0.2-1-0.2L159,7.6l-1-3
				c0.5,0.1,1,0.2,1.5,0.3c0.5,0.1,1,0.2,1.5,0.3c0.5,0.1,1,0.2,1.5,0.3C162.8,5.6,163.3,5.7,163.8,5.8z"/>
		</g>
		<g>
			<path class="st0" d="M39.6,5.1l1.3,3.2c-1,0.4-2,0.7-2.9,1.1c-0.9,0.4-1.8,0.8-2.5,1.2c-0.8,0.4-1.5,0.9-2.1,1.3
				c-0.6,0.5-1.2,0.9-1.6,1.4c0,0,0,0,0,0c0,0,0,0,0,0c0,0,0,0,0,0c0,0,0,0,0,0l-9.6-2.8l-17.2,3c0,0,0.1,0,0.1-0.1
				c0,0,0.1,0,0.1-0.1c0,0,0.1,0,0.1-0.1c0,0,0.1,0,0.1-0.1c1.1-0.8,2.3-1.5,3.6-2.2c1.3-0.7,2.7-1.3,4.3-1.9
				c1.5-0.6,3.1-1.2,4.8-1.7c1.7-0.5,3.4-1.1,5.2-1.5L39.6,5.1z"/>
		</g>
		<g>
			<path class="st0" d="M183.6,12.7c0,0,0.1,0,0.1,0.1c0,0,0.1,0,0.1,0.1c0,0,0.1,0,0.1,0.1c0,0,0.1,0,0.1,0.1
				c1.4,0.7,2.6,1.5,3.7,2.2c1.1,0.8,2,1.6,2.8,2.4c0.8,0.8,1.4,1.6,1.8,2.5c0.4,0.9,0.6,1.7,0.7,2.6l-17.7,1.7l-12.5-5.3
				c0.1-0.5,0.2-1,0.1-1.5c-0.1-0.5-0.2-1-0.5-1.5c-0.3-0.5-0.7-1-1.1-1.5c-0.5-0.5-1.1-1-1.7-1.4c0,0,0,0,0,0c0,0,0,0,0,0
				c0,0,0,0,0,0c0,0,0,0,0,0l16.8,2.9L183.6,12.7z"/>
		</g>
		<g>
			<path class="st0" d="M30.4,15.2c-0.1,0.4-0.2,0.8-0.2,1.2c0,0.4,0.1,0.8,0.2,1.2c0.1,0.4,0.4,0.8,0.6,1.2
				c0.3,0.4,0.6,0.8,1.1,1.2c0.1,0.1,0.3,0.3,0.5,0.4c0.2,0.1,0.3,0.3,0.5,0.4c0.2,0.1,0.4,0.3,0.6,0.4c0.2,0.1,0.4,0.3,0.6,0.4
				l-19-1.4L2.9,26.2c-0.2-0.2-0.5-0.5-0.7-0.7c-0.2-0.2-0.4-0.5-0.6-0.7c-0.2-0.2-0.3-0.5-0.5-0.7c-0.1-0.2-0.3-0.5-0.4-0.7
				C0.4,22.8,0.1,22,0,21.3c-0.1-0.7,0-1.4,0.1-2.1c0.2-0.7,0.5-1.4,0.9-2c0.4-0.7,1-1.3,1.6-2l17.4-3.1L30.4,15.2z"/>
		</g>
		<g>
			<path class="st0" d="M192.7,24.5c-0.3,1-0.9,1.9-1.7,2.9c-0.9,1-2,1.9-3.4,2.9c-1.4,1-3.2,1.9-5.2,2.8c-2.1,0.9-4.5,1.9-7.1,2.7
				l-26.4-1.8l0.2-7c1.6-0.5,3.1-0.9,4.4-1.4c1.3-0.5,2.5-1,3.6-1.5c1-0.5,1.9-1,2.7-1.6c0.8-0.5,1.4-1.1,1.9-1.6l12.2,5.4
				L192.7,24.5z"/>
		</g>
		<g>
			<path class="st0" d="M59.6,29.5l-24.2,1.8l2.6,8.1c-3.9-0.8-7.6-1.6-11-2.5c-3.3-0.9-6.3-1.8-9.1-2.7c-2.7-0.9-5.1-1.9-7.1-2.9
				c-2-1-3.8-2-5.2-3l12.1-6l20.6,1.5c1.2,0.5,2.6,1.1,4.1,1.6c1.5,0.5,3.2,1,5,1.5c1.8,0.5,3.7,0.9,5.8,1.4
				C55.1,28.7,57.3,29.1,59.6,29.5z"/>
		</g>
		<g>
			<path class="st0" d="M169.1,37.7c-3.1,0.8-6.5,1.6-10.2,2.3c-3.8,0.7-7.8,1.4-12.1,2c-4.3,0.6-8.9,1.1-13.8,1.5
				c-4.9,0.4-10,0.8-15.2,1L95.9,38l17.2-5.9c2.9-0.1,5.6-0.3,8.3-0.5c2.7-0.2,5.2-0.5,7.7-0.8c2.4-0.3,4.8-0.6,7-1
				c2.2-0.4,4.3-0.7,6.2-1.1l-0.9,7L169.1,37.7z"/>
		</g>
		<g>
			<path class="st0" d="M102.4,32.5l-17.3,5.6l21.8,6.6c-0.2,0-0.3,0-0.5,0c-0.2,0-0.3,0-0.5,0c-0.2,0-0.3,0-0.5,0
				c-0.2,0-0.3,0-0.5,0c-5.3,0.1-10.6,0-15.8-0.1C84,44.5,78.9,44.2,74,43.9c-4.9-0.3-9.7-0.8-14.3-1.3c-4.5-0.5-8.9-1.1-13-1.7
				l-3.4-8.1l25.5-2c2.5,0.3,5,0.5,7.7,0.8c2.6,0.2,5.3,0.4,8.1,0.6c2.8,0.1,5.6,0.3,8.5,0.3c2.9,0.1,5.8,0.1,8.7,0.1
				c0.1,0,0.1,0,0.2,0c0.1,0,0.1,0,0.2,0c0.1,0,0.1,0,0.2,0C102.3,32.5,102.4,32.5,102.4,32.5z"/>
		</g>
	</g>
</g>
</svg>
