<?xml version="1.0" encoding="utf-8"?>
<!-- Generator: Adobe Illustrator 23.0.0, SVG Export Plug-In . SVG Version: 6.00 Build 0)  -->
<svg version="1.1" id="Layer_1" xmlns="http://www.w3.org/2000/svg" xmlns:xlink="http://www.w3.org/1999/xlink" x="0px" y="0px"
	 viewBox="0 0 183.6 34.9" style="enable-background:new 0 0 183.6 34.9;" xml:space="preserve">
<style type="text/css">
	.st0{fill:#EF3E46;}
	.st1{fill:none;stroke:#EF3E46;stroke-miterlimit:10;}
	.st2{enable-background:new    ;}
	.st3{clip-path:url(#SVGID_2_);}
	.st4{clip-path:url(#SVGID_4_);}
	.st5{fill:none;stroke:#EF3E46;stroke-width:50;stroke-miterlimit:10;}
	.st6{fill:none;stroke:#FFFFFF;stroke-width:10;stroke-miterlimit:10;}
	.st7{clip-path:url(#SVGID_6_);}
	.st8{clip-path:url(#SVGID_8_);}
	.st9{fill:none;stroke:#EF3E46;stroke-width:20;stroke-miterlimit:10;}
	.st10{clip-path:url(#SVGID_10_);}
	.st11{clip-path:url(#SVGID_12_);}
	.st12{clip-path:url(#SVGID_14_);}
	.st13{clip-path:url(#SVGID_16_);}
	.st14{clip-path:url(#SVGID_18_);}
	.st15{clip-path:url(#SVGID_20_);}
	.st16{clip-path:url(#SVGID_22_);}
	.st17{fill:#FFFFFF;}
	.st18{clip-path:url(#SVGID_24_);}
</style>
<g>
	<g class="st2">
		<g>
			<path class="st0" d="M138.5,2.1l2.7,2.7l-16.8,0.2c-1.7-0.2-3.3-0.3-5.1-0.5c-1.7-0.1-3.5-0.3-5.2-0.4c-1.8-0.1-3.6-0.2-5.4-0.3
				c-1.8-0.1-3.7-0.2-5.5-0.2l13-1.4L106.6,0c2.8,0.1,5.5,0.2,8.3,0.3c2.7,0.1,5.4,0.3,8.1,0.4c2.7,0.2,5.3,0.4,7.9,0.6
				C133.5,1.5,136,1.8,138.5,2.1z"/>
		</g>
		<g>
			<path class="st0" d="M75.6,2l-8.4,2.4c-1.8,0.1-3.6,0.3-5.3,0.5c-1.7,0.2-3.4,0.4-5,0.6c-1.6,0.2-3.2,0.4-4.7,0.6
				c-1.5,0.2-3,0.5-4.4,0.7l1-2.7L31.9,4.4c2.2-0.4,4.5-0.7,6.8-1.1C41.1,3,43.5,2.7,46,2.4c2.5-0.3,5-0.5,7.7-0.8
				c2.6-0.2,5.3-0.5,8.1-0.7L75.6,2z"/>
		</g>
		<g>
			<path class="st0" d="M164.4,6.3c0.4,0.1,0.7,0.2,1.1,0.3c0.4,0.1,0.7,0.2,1.1,0.3c0.4,0.1,0.7,0.2,1.1,0.3c0.4,0.1,0.7,0.2,1,0.3
				l-5.2,2.8l-16.9-1.4c-0.1,0-0.3-0.1-0.4-0.1c-0.1,0-0.3-0.1-0.4-0.1c-0.1,0-0.3-0.1-0.4-0.1c-0.1,0-0.3-0.1-0.4-0.1
				c-1-0.3-2.1-0.5-3.3-0.8c-1.1-0.3-2.3-0.5-3.5-0.7c-1.2-0.2-2.5-0.4-3.8-0.6c-1.3-0.2-2.6-0.4-4-0.6l16.2-0.2l-3-2.8
				c1.9,0.2,3.8,0.5,5.6,0.8c1.8,0.3,3.6,0.6,5.3,0.9c1.7,0.3,3.4,0.6,5.1,1C161.3,5.6,162.9,5.9,164.4,6.3z"/>
		</g>
		<g>
			<path class="st0" d="M43.9,4.9l-1.2,2.9c-1.3,0.3-2.5,0.6-3.7,0.9c-1.2,0.3-2.3,0.6-3.3,1c-1,0.3-2,0.7-2.8,1
				c-0.9,0.4-1.6,0.7-2.3,1.1l-7-2.6L6.8,11.2C8,10.6,9.4,10,10.9,9.5C12.4,9,14,8.4,15.7,7.9c1.7-0.5,3.6-1,5.5-1.4
				c1.9-0.5,4-0.9,6.1-1.3L43.9,4.9z"/>
		</g>
		<g>
			<path class="st0" d="M172.1,8.5c0,0,0.1,0,0.1,0c0,0,0.1,0,0.1,0c0,0,0.1,0,0.1,0c0,0,0.1,0,0.1,0c1.5,0.5,2.9,1.1,4.1,1.6
				c1.2,0.6,2.3,1.1,3.2,1.7c0.9,0.6,1.6,1.2,2.2,1.8c0.6,0.6,1,1.2,1.2,1.8l-13.9,2.1l-12.8-3.1c-0.1-0.4-0.3-0.8-0.7-1.2
				c-0.3-0.4-0.7-0.8-1.2-1.1c-0.5-0.4-1.1-0.7-1.8-1.1c-0.7-0.4-1.5-0.7-2.4-1.1c0,0,0,0-0.1,0c0,0,0,0-0.1,0c0,0,0,0-0.1,0
				c0,0,0,0-0.1,0l16.5,1.4L172.1,8.5z"/>
		</g>
		<g>
			<path class="st0" d="M28.4,13.3c-0.4,0.4-0.8,0.8-1,1.1c-0.3,0.4-0.4,0.8-0.5,1.2c-0.1,0.4,0,0.8,0.2,1.2
				c0.2,0.4,0.4,0.8,0.8,1.2c0,0,0,0,0,0c0,0,0,0,0,0c0,0,0,0,0,0s0,0,0,0l-15.1-1.6L0.8,20.1c0,0,0,0,0-0.1c0,0,0,0,0-0.1
				c0,0,0,0,0-0.1c0,0,0,0,0-0.1c-0.4-0.7-0.6-1.3-0.7-2c0-0.6,0.1-1.3,0.5-1.9c0.3-0.6,0.9-1.2,1.5-1.8c0.7-0.6,1.5-1.2,2.4-1.7
				L21,10.5L28.4,13.3z"/>
		</g>
		<g>
			<path class="st0" d="M183.6,17c0,0.7-0.2,1.3-0.6,2c-0.4,0.7-1.1,1.4-1.9,2c-0.9,0.7-1.9,1.4-3.2,2c-1.3,0.7-2.8,1.3-4.5,2
				l-20.6,0.4l-3.4-4.3c1.1-0.4,2-0.8,2.9-1.2c0.8-0.4,1.6-0.8,2.2-1.2c0.6-0.4,1.1-0.8,1.5-1.2c0.4-0.4,0.6-0.8,0.8-1.3l12.4,3.1
				L183.6,17z"/>
		</g>
		<g>
			<path class="st0" d="M44.1,24.2l-20.2,0.2l-1.8,4.6c-2-0.4-3.9-0.9-5.7-1.4c-1.7-0.5-3.4-1-4.9-1.5c-1.5-0.5-2.8-1-4-1.5
				c-1.2-0.5-2.3-1.1-3.2-1.6C4.2,23,4,22.9,3.8,22.8c-0.2-0.1-0.4-0.3-0.6-0.4C3,22.2,2.8,22.1,2.6,22c-0.2-0.1-0.3-0.3-0.5-0.4
				L14,18l16,1.8c0.1,0,0.2,0.1,0.3,0.1c0.1,0,0.2,0.1,0.3,0.1c0.1,0,0.2,0.1,0.3,0.1c0.1,0,0.2,0.1,0.3,0.1
				c0.7,0.4,1.6,0.7,2.5,1.1c0.9,0.3,1.9,0.7,3,1c1.1,0.3,2.3,0.6,3.5,0.9C41.4,23.6,42.7,23.9,44.1,24.2z"/>
		</g>
		<g>
			<path class="st0" d="M169.3,26.4c-2,0.6-4.2,1.2-6.7,1.8c-2.5,0.6-5.1,1.1-8,1.7c-2.9,0.5-6,1-9.3,1.5c-3.3,0.5-6.8,0.9-10.5,1.3
				l-20.7-2.1l9.2-4.3c2.2-0.2,4.3-0.5,6.3-0.8c2-0.3,3.9-0.6,5.7-0.9c1.8-0.3,3.4-0.6,5-1c1.6-0.3,3-0.7,4.3-1.1l3.1,4.3
				L169.3,26.4z"/>
		</g>
		<g>
			<path class="st0" d="M76.8,27.7l-18.5,2.5l11.6,4.3c-4-0.2-8-0.4-11.8-0.7c-3.8-0.3-7.5-0.6-11.1-1c-3.5-0.4-6.9-0.8-10.1-1.2
				c-3.2-0.4-6.2-0.9-9.1-1.4l1.5-4.6l21.4-0.2c1.9,0.3,3.8,0.5,5.9,0.8c2,0.2,4.2,0.5,6.3,0.7c2.2,0.2,4.5,0.4,6.8,0.5
				C72,27.5,74.4,27.6,76.8,27.7z"/>
		</g>
		<g>
			<path class="st0" d="M115.1,27l-9.2,4.2l21.2,2.2c-0.1,0-0.2,0-0.3,0c-0.1,0-0.2,0-0.3,0c-0.1,0-0.2,0-0.3,0c-0.1,0-0.2,0-0.4,0
				c-3.8,0.3-7.8,0.6-11.7,0.8c-3.9,0.2-7.9,0.4-11.9,0.5c-4,0.1-8,0.2-11.9,0.2c-4,0-7.9,0-11.8-0.1l-11.7-4.2l19.2-2.7
				c2.4,0,4.7,0,7.1,0c2.4,0,4.8-0.1,7.2-0.1c2.4-0.1,4.8-0.2,7.2-0.3c2.4-0.1,4.7-0.3,7.1-0.5c0,0,0.1,0,0.1,0c0,0,0.1,0,0.1,0
				c0,0,0.1,0,0.1,0C115,27,115.1,27,115.1,27z"/>
		</g>
	</g>
</g>
</svg>
