<?xml version="1.0" encoding="utf-8"?>
<!-- Generator: Adobe Illustrator 23.0.0, SVG Export Plug-In . SVG Version: 6.00 Build 0)  -->
<svg version="1.1" id="Layer_1" xmlns="http://www.w3.org/2000/svg" xmlns:xlink="http://www.w3.org/1999/xlink" x="0px" y="0px"
	 viewBox="0 0 183.8 117.2" style="enable-background:new 0 0 183.8 117.2;" xml:space="preserve">
<style type="text/css">
	.st0{fill:#EF3E46;}
	.st1{fill:none;stroke:#EF3E46;stroke-miterlimit:10;}
	.st2{enable-background:new    ;}
	.st3{clip-path:url(#SVGID_2_);}
	.st4{clip-path:url(#SVGID_4_);}
	.st5{fill:none;stroke:#EF3E46;stroke-width:50;stroke-miterlimit:10;}
	.st6{fill:none;stroke:#FFFFFF;stroke-width:10;stroke-miterlimit:10;}
	.st7{clip-path:url(#SVGID_6_);}
	.st8{clip-path:url(#SVGID_8_);}
	.st9{fill:none;stroke:#EF3E46;stroke-width:20;stroke-miterlimit:10;}
	.st10{clip-path:url(#SVGID_10_);}
	.st11{clip-path:url(#SVGID_12_);}
	.st12{clip-path:url(#SVGID_14_);}
	.st13{clip-path:url(#SVGID_16_);}
	.st14{clip-path:url(#SVGID_18_);}
	.st15{clip-path:url(#SVGID_20_);}
	.st16{clip-path:url(#SVGID_22_);}
	.st17{fill:#FFFFFF;}
	.st18{clip-path:url(#SVGID_24_);}
</style>
<g>
	<g class="st2">
		<g>
			<path class="st0" d="M66.4,3.8l-6.5,8.8c-1.6,0.6-3.2,1.3-4.8,2.1c-1.6,0.7-3.1,1.5-4.5,2.3c-1.5,0.8-2.9,1.7-4.3,2.6
				c-1.4,0.9-2.7,1.9-4,2.9l-0.9-9.2l-16.8,2.5c2-1.5,4.1-2.9,6.3-4.2c2.2-1.3,4.4-2.6,6.7-3.8c2.3-1.2,4.7-2.3,7.1-3.3
				c2.4-1,4.9-2,7.4-2.8L66.4,3.8z"/>
		</g>
		<g>
			<path class="st0" d="M159.9,13.2l-2.4,9.5l-17.3-3.1c-1.3-0.9-2.6-1.8-4.1-2.7c-1.4-0.8-2.9-1.6-4.4-2.4c-1.5-0.7-3-1.4-4.6-2.1
				c-1.6-0.6-3.2-1.2-4.9-1.8l15.3-2L132.4,0c2.5,0.8,5,1.6,7.4,2.6c2.4,0.9,4.8,2,7.1,3c2.3,1.1,4.6,2.3,6.7,3.5
				C155.8,10.4,157.9,11.8,159.9,13.2z"/>
		</g>
		<g>
			<path class="st0" d="M37.1,16.5l0.8,10c-1.1,1.1-2.1,2.2-3,3.3c-0.9,1.1-1.8,2.3-2.6,3.5c-0.8,1.2-1.5,2.5-2.2,3.8
				c-0.6,1.3-1.2,2.6-1.7,4c0,0,0,0.1,0,0.1c0,0,0,0.1,0,0.1c0,0,0,0.1,0,0.1c0,0,0,0.1,0,0.1l-8.9-8.2L3.4,41.4
				c0-0.1,0.1-0.1,0.1-0.2c0-0.1,0.1-0.1,0.1-0.2c0-0.1,0.1-0.1,0.1-0.2c0-0.1,0.1-0.1,0.1-0.2c0.9-2.1,2-4.1,3.2-6.1
				c1.2-1.9,2.5-3.8,3.9-5.6c1.4-1.8,2.9-3.5,4.6-5.2c1.6-1.6,3.3-3.2,5.1-4.7L37.1,16.5z"/>
		</g>
		<g>
			<path class="st0" d="M172.4,24.5c0.9,1.1,1.7,2.1,2.5,3.2c0.8,1.1,1.6,2.2,2.3,3.4c0.7,1.2,1.4,2.4,2,3.6
				c0.6,1.2,1.2,2.5,1.7,3.8l-11.2,8.5l-14.9-9.1c-0.3-0.8-0.6-1.5-0.9-2.2c-0.3-0.7-0.7-1.5-1.1-2.2c-0.4-0.7-0.8-1.4-1.2-2.1
				c-0.4-0.7-0.9-1.3-1.4-2c-0.4-0.5-0.8-1.1-1.2-1.6c-0.4-0.5-0.9-1-1.3-1.5c-0.5-0.5-0.9-1-1.4-1.5c-0.5-0.5-1-1-1.5-1.4l16.9,3.1
				l2.4-10.1c0.8,0.6,1.5,1.3,2.3,1.9c0.7,0.7,1.5,1.3,2.2,2c0.7,0.7,1.4,1.4,2,2.1C171.1,23,171.8,23.8,172.4,24.5z"/>
		</g>
		<g>
			<path class="st0" d="M27.1,46.6c-0.1,0.8-0.2,1.6-0.2,2.4c0,0.8-0.1,1.6,0,2.4c0,0.8,0.1,1.6,0.2,2.4c0.1,0.8,0.2,1.6,0.4,2.4
				c0.1,0.6,0.3,1.3,0.5,1.9c0.2,0.6,0.4,1.3,0.6,1.9c0.2,0.6,0.5,1.3,0.7,1.9c0.3,0.6,0.6,1.3,0.9,1.9l-16.8-4.1L3.1,73.6
				c-0.4-1-0.7-1.9-1-2.9c-0.3-1-0.6-1.9-0.8-2.9C1,66.9,0.8,66,0.6,65c-0.2-1-0.3-1.9-0.4-2.9C0.1,60.7,0,59.4,0,58
				c0-1.4,0.1-2.7,0.2-4.1c0.1-1.3,0.3-2.7,0.6-4c0.3-1.3,0.6-2.7,1-4l15.8-8.2L27.1,46.6z"/>
		</g>
		<g>
			<path class="st0" d="M182.4,43c0,0.1,0,0.1,0.1,0.2c0,0.1,0,0.1,0.1,0.2c0,0.1,0,0.1,0.1,0.2c0,0.1,0,0.1,0.1,0.2
				c0.6,2.3,0.9,4.5,1.1,6.8c0.2,2.3,0.2,4.6,0,6.9c-0.2,2.3-0.6,4.6-1.2,6.9c-0.6,2.3-1.4,4.6-2.4,6.9l-19.5,3.6l-7.1-14.5
				c0.7-1.4,1.2-2.8,1.7-4.2c0.4-1.4,0.8-2.8,1-4.3c0.2-1.4,0.3-2.9,0.3-4.3c0-1.4-0.1-2.9-0.3-4.3c0,0,0-0.1,0-0.1c0,0,0-0.1,0-0.1
				c0,0,0-0.1,0-0.1c0,0,0-0.1,0-0.1l14.5,9.1L182.4,43z"/>
		</g>
		<g>
			<path class="st0" d="M177.5,76.3c-1.4,2.4-3,4.8-4.9,7.1c-1.9,2.3-4,4.6-6.3,6.8c-2.4,2.2-4.9,4.3-7.7,6.3c-2.8,2-5.8,4-9,5.8
				l-22.3-5l5.5-16.2c1.9-1.1,3.7-2.2,5.4-3.4c1.7-1.2,3.3-2.4,4.7-3.7c1.5-1.3,2.8-2.6,4.1-4c1.2-1.4,2.4-2.7,3.4-4.2l6.7,14.4
				L177.5,76.3z"/>
		</g>
		<g>
			<path class="st0" d="M87.2,91.7l-16.9,11.4l15.4,14.2c-0.1,0-0.3,0-0.4,0c-0.1,0-0.3,0-0.4,0c-0.1,0-0.3,0-0.4,0
				c-0.1,0-0.3,0-0.4,0c-4.3-0.2-8.5-0.5-12.6-1c-4.1-0.5-8-1.2-11.9-2.1c-3.8-0.9-7.5-1.9-11-3.1c-3.5-1.2-6.9-2.5-10.1-4l-1.7-17
				l21.9-3.5c2,0.8,4.2,1.4,6.4,2c2.2,0.6,4.5,1.1,6.8,1.6c2.3,0.4,4.7,0.8,7.2,1.1c2.5,0.3,5,0.4,7.5,0.5c0.1,0,0.1,0,0.2,0
				c0.1,0,0.1,0,0.2,0c0.1,0,0.1,0,0.2,0C87.1,91.7,87.1,91.7,87.2,91.7z"/>
		</g>
		<g>
			<path class="st0" d="M142.6,105.9c-3.4,1.6-7,3-10.7,4.3c-3.8,1.3-7.7,2.4-11.7,3.4c-4,1-8.2,1.7-12.5,2.3c-4.3,0.6-8.6,1-13,1.2
				l-15.4-13.8l17.4-11.9c2.6-0.2,5.1-0.5,7.7-0.9c2.5-0.4,5-0.9,7.4-1.4c2.4-0.6,4.7-1.2,7-2c2.2-0.7,4.4-1.5,6.5-2.4l-5.7,15.9
				L142.6,105.9z"/>
		</g>
	</g>
	<g>
		<path class="st0" d="M51.1,83.2l-20.8,3.2l1.4,17.1c-3.1-1.7-6-3.6-8.6-5.5c-2.6-1.9-5.1-4-7.3-6.1c-2.2-2.1-4.1-4.3-5.9-6.5
			c-1.7-2.2-3.2-4.5-4.5-6.9l10-14L33.4,69c1,1.4,2.2,2.7,3.4,4c1.3,1.3,2.6,2.5,4.1,3.7c1.5,1.2,3.1,2.4,4.8,3.4
			C47.3,81.2,49.2,82.2,51.1,83.2z"/>
	</g>
</g>
</svg>
